<?xml version="1.0" standalone="no"?>
<!DOCTYPE svg PUBLIC "-//W3C//DTD SVG 20010904//EN"
 "http://www.w3.org/TR/2001/REC-SVG-20010904/DTD/svg10.dtd">
<svg version="1.0" xmlns="http://www.w3.org/2000/svg"
 width="888.000000pt" height="512.000000pt" viewBox="0 0 888.000000 512.000000"
 preserveAspectRatio="xMidYMid meet">

<g transform="translate(0.000000,512.000000) scale(0.100000,-0.100000)"
fill="#000000" stroke="none">
<path d="M5338 3783 c7 -3 16 -2 19 1 4 3 -2 6 -13 5 -11 0 -14 -3 -6 -6z"/>
<path d="M5453 3783 c15 -2 39 -2 55 0 15 2 2 4 -28 4 -30 0 -43 -2 -27 -4z"/>
<path d="M5608 3783 c7 -3 16 -2 19 1 4 3 -2 6 -13 5 -11 0 -14 -3 -6 -6z"/>
<path d="M5338 3733 c7 -3 16 -2 19 1 4 3 -2 6 -13 5 -11 0 -14 -3 -6 -6z"/>
<path d="M5453 3733 c15 -2 39 -2 55 0 15 2 2 4 -28 4 -30 0 -43 -2 -27 -4z"/>
<path d="M5608 3733 c7 -3 16 -2 19 1 4 3 -2 6 -13 5 -11 0 -14 -3 -6 -6z"/>
<path d="M5280 3680 c0 -5 5 -10 10 -10 6 0 10 5 10 10 0 6 -4 10 -10 10 -5 0
-10 -4 -10 -10z"/>
<path d="M5330 3680 c0 -5 7 -10 15 -10 8 0 15 5 15 10 0 6 -7 10 -15 10 -8 0
-15 -4 -15 -10z"/>
<path d="M5430 3680 c0 -5 23 -10 50 -10 28 0 50 5 50 10 0 6 -22 10 -50 10
-27 0 -50 -4 -50 -10z"/>
<path d="M5600 3680 c0 -5 7 -10 15 -10 8 0 15 5 15 10 0 6 -7 10 -15 10 -8 0
-15 -4 -15 -10z"/>
<path d="M5660 3680 c0 -5 5 -10 10 -10 6 0 10 5 10 10 0 6 -4 10 -10 10 -5 0
-10 -4 -10 -10z"/>
<path d="M5280 3630 c0 -5 5 -10 10 -10 6 0 10 5 10 10 0 6 -4 10 -10 10 -5 0
-10 -4 -10 -10z"/>
<path d="M5330 3630 c0 -5 7 -10 15 -10 8 0 15 5 15 10 0 6 -7 10 -15 10 -8 0
-15 -4 -15 -10z"/>
<path d="M5430 3630 c0 -5 23 -10 50 -10 28 0 50 5 50 10 0 6 -22 10 -50 10
-27 0 -50 -4 -50 -10z"/>
<path d="M5600 3630 c0 -5 7 -10 15 -10 8 0 15 5 15 10 0 6 -7 10 -15 10 -8 0
-15 -4 -15 -10z"/>
<path d="M5660 3630 c0 -5 5 -10 10 -10 6 0 10 5 10 10 0 6 -4 10 -10 10 -5 0
-10 -4 -10 -10z"/>
<path d="M5280 3580 c0 -5 5 -10 10 -10 6 0 10 5 10 10 0 6 -4 10 -10 10 -5 0
-10 -4 -10 -10z"/>
<path d="M5330 3580 c0 -5 7 -10 15 -10 8 0 15 5 15 10 0 6 -7 10 -15 10 -8 0
-15 -4 -15 -10z"/>
<path d="M5430 3580 c0 -5 23 -10 50 -10 28 0 50 5 50 10 0 6 -22 10 -50 10
-27 0 -50 -4 -50 -10z"/>
<path d="M5600 3580 c0 -5 7 -10 15 -10 8 0 15 5 15 10 0 6 -7 10 -15 10 -8 0
-15 -4 -15 -10z"/>
<path d="M5660 3580 c0 -5 5 -10 10 -10 6 0 10 5 10 10 0 6 -4 10 -10 10 -5 0
-10 -4 -10 -10z"/>
<path d="M3568 3523 c45 -2 119 -2 165 0 45 1 8 3 -83 3 -91 0 -128 -2 -82 -3z"/>
<path d="M5338 3523 c7 -3 16 -2 19 1 4 3 -2 6 -13 5 -11 0 -14 -3 -6 -6z"/>
<path d="M5453 3523 c15 -2 39 -2 55 0 15 2 2 4 -28 4 -30 0 -43 -2 -27 -4z"/>
<path d="M5608 3523 c7 -3 16 -2 19 1 4 3 -2 6 -13 5 -11 0 -14 -3 -6 -6z"/>
<path d="M5338 3473 c7 -3 16 -2 19 1 4 3 -2 6 -13 5 -11 0 -14 -3 -6 -6z"/>
<path d="M5453 3473 c15 -2 39 -2 55 0 15 2 2 4 -28 4 -30 0 -43 -2 -27 -4z"/>
<path d="M5608 3473 c7 -3 16 -2 19 1 4 3 -2 6 -13 5 -11 0 -14 -3 -6 -6z"/>
<path d="M5338 3423 c7 -3 16 -2 19 1 4 3 -2 6 -13 5 -11 0 -14 -3 -6 -6z"/>
<path d="M5453 3423 c15 -2 39 -2 55 0 15 2 2 4 -28 4 -30 0 -43 -2 -27 -4z"/>
<path d="M5608 3423 c7 -3 16 -2 19 1 4 3 -2 6 -13 5 -11 0 -14 -3 -6 -6z"/>
<path d="M6968 3393 c243 -2 641 -2 885 0 243 1 44 2 -443 2 -487 0 -686 -1
-442 -2z"/>
<path d="M5280 3370 c0 -5 5 -10 10 -10 6 0 10 5 10 10 0 6 -4 10 -10 10 -5 0
-10 -4 -10 -10z"/>
<path d="M5330 3370 c0 -5 7 -10 15 -10 8 0 15 5 15 10 0 6 -7 10 -15 10 -8 0
-15 -4 -15 -10z"/>
<path d="M5430 3370 c0 -5 23 -10 50 -10 28 0 50 5 50 10 0 6 -22 10 -50 10
-27 0 -50 -4 -50 -10z"/>
<path d="M5600 3370 c0 -5 7 -10 15 -10 8 0 15 5 15 10 0 6 -7 10 -15 10 -8 0
-15 -4 -15 -10z"/>
<path d="M5660 3370 c0 -5 5 -10 10 -10 6 0 10 5 10 10 0 6 -4 10 -10 10 -5 0
-10 -4 -10 -10z"/>
<path d="M4943 3363 c-39 -5 -45 -22 -41 -108 l3 -60 51 75 c28 41 54 81 58
88 7 12 -4 13 -71 5z"/>
<path d="M2136 3338 c-3 -13 -7 -47 -8 -76 l-3 -52 63 0 62 0 0 54 c0 39 -4
55 -15 60 -8 3 -15 12 -15 21 0 11 -11 15 -40 15 -33 0 -40 -4 -44 -22z"/>
<path d="M2368 3324 c-10 -19 -18 -53 -18 -74 l0 -40 140 0 140 0 0 54 c0 39
-4 55 -15 60 -8 3 -15 12 -15 21 0 13 -18 15 -107 15 l-108 0 -17 -36z"/>
<path d="M2760 3345 c0 -9 -7 -18 -15 -21 -11 -5 -15 -21 -15 -60 l0 -54 116
0 117 0 -6 48 c-3 26 -12 59 -19 74 -13 27 -15 28 -95 28 -68 0 -83 -3 -83
-15z"/>
<path d="M3084 3351 c3 -5 -1 -14 -9 -21 -10 -8 -15 -31 -15 -66 l0 -54 100 0
100 0 0 35 c0 19 -8 53 -17 75 l-18 40 -73 0 c-40 0 -71 -4 -68 -9z"/>
<path d="M4845 3338 c-11 -6 -21 -12 -22 -12 -1 -1 5 -22 13 -46 19 -55 12
-107 -23 -171 -41 -76 -21 -78 30 -3 l47 69 0 88 c0 91 -4 98 -45 75z"/>
<path d="M4990 3297 c-19 -28 -43 -64 -53 -79 l-19 -28 69 32 c37 17 70 33 72
35 6 4 -18 81 -27 87 -4 2 -23 -19 -42 -47z"/>
<path d="M3760 3315 c0 -6 70 -112 100 -152 16 -20 16 -17 12 60 -2 45 -5 83
-6 83 -5 6 -106 14 -106 9z"/>
<path d="M3731 3269 c-21 -62 -17 -67 98 -116 l34 -14 -48 68 c-71 101 -70
100 -84 62z"/>
<path d="M3883 3211 c5 -80 9 -96 37 -136 22 -33 38 -45 55 -45 31 0 31 4 0
44 -41 53 -57 104 -53 165 3 53 2 56 -21 59 l-24 4 6 -91z"/>
<path d="M5220 3290 c0 -5 7 -10 15 -10 8 0 15 5 15 10 0 6 -7 10 -15 10 -8 0
-15 -4 -15 -10z"/>
<path d="M5290 3290 c0 -5 9 -10 20 -10 11 0 20 5 20 10 0 6 -9 10 -20 10 -11
0 -20 -4 -20 -10z"/>
<path d="M5370 3290 c0 -5 7 -10 15 -10 8 0 15 5 15 10 0 6 -7 10 -15 10 -8 0
-15 -4 -15 -10z"/>
<path d="M5430 3290 c0 -5 23 -10 50 -10 28 0 50 5 50 10 0 6 -22 10 -50 10
-27 0 -50 -4 -50 -10z"/>
<path d="M5560 3290 c0 -5 9 -10 20 -10 11 0 20 5 20 10 0 6 -9 10 -20 10 -11
0 -20 -4 -20 -10z"/>
<path d="M5640 3290 c0 -5 9 -10 20 -10 11 0 20 5 20 10 0 6 -9 10 -20 10 -11
0 -20 -4 -20 -10z"/>
<path d="M5720 3290 c0 -5 5 -10 10 -10 6 0 10 5 10 10 0 6 -4 10 -10 10 -5 0
-10 -4 -10 -10z"/>
<path d="M7988 3283 c7 -3 16 -2 19 1 4 3 -2 6 -13 5 -11 0 -14 -3 -6 -6z"/>
<path d="M8178 3283 c7 -3 16 -2 19 1 4 3 -2 6 -13 5 -11 0 -14 -3 -6 -6z"/>
<path d="M5220 3240 c0 -5 7 -10 15 -10 8 0 15 5 15 10 0 6 -7 10 -15 10 -8 0
-15 -4 -15 -10z"/>
<path d="M5290 3240 c0 -5 9 -10 20 -10 11 0 20 5 20 10 0 6 -9 10 -20 10 -11
0 -20 -4 -20 -10z"/>
<path d="M5370 3240 c0 -5 7 -10 15 -10 8 0 15 5 15 10 0 6 -7 10 -15 10 -8 0
-15 -4 -15 -10z"/>
<path d="M5430 3240 c0 -5 23 -10 50 -10 28 0 50 5 50 10 0 6 -22 10 -50 10
-27 0 -50 -4 -50 -10z"/>
<path d="M5560 3240 c0 -5 9 -10 20 -10 11 0 20 5 20 10 0 6 -9 10 -20 10 -11
0 -20 -4 -20 -10z"/>
<path d="M5640 3240 c0 -5 9 -10 20 -10 11 0 20 5 20 10 0 6 -9 10 -20 10 -11
0 -20 -4 -20 -10z"/>
<path d="M5720 3240 c0 -5 5 -10 10 -10 6 0 10 5 10 10 0 6 -4 10 -10 10 -5 0
-10 -4 -10 -10z"/>
<path d="M4972 3202 c-55 -29 -81 -49 -108 -87 -63 -88 -64 -85 24 -63 162 40
150 35 162 76 12 43 13 112 3 112 -5 -1 -41 -18 -81 -38z"/>
<path d="M2118 3145 l-3 -45 67 0 68 0 0 45 0 45 -64 0 -64 0 -4 -45z"/>
<path d="M2350 3145 l0 -45 140 0 140 0 0 45 0 45 -140 0 -140 0 0 -45z"/>
<path d="M2730 3145 l0 -46 113 3 112 3 0 40 0 40 -112 3 -113 3 0 -46z"/>
<path d="M3060 3145 l0 -45 101 0 100 0 -3 43 -3 42 -97 3 -98 3 0 -46z"/>
<path d="M3714 3139 c13 -100 17 -104 125 -107 51 -1 91 1 89 5 -1 4 -14 25
-28 45 -23 34 -78 66 -179 106 -11 4 -13 -5 -7 -49z"/>
<path d="M5228 3183 c7 -3 16 -2 19 1 4 3 -2 6 -13 5 -11 0 -14 -3 -6 -6z"/>
<path d="M5298 3183 c6 -2 18 -2 25 0 6 3 1 5 -13 5 -14 0 -19 -2 -12 -5z"/>
<path d="M5378 3183 c7 -3 16 -2 19 1 4 3 -2 6 -13 5 -11 0 -14 -3 -6 -6z"/>
<path d="M5453 3183 c15 -2 39 -2 55 0 15 2 2 4 -28 4 -30 0 -43 -2 -27 -4z"/>
<path d="M5568 3183 c6 -2 18 -2 25 0 6 3 1 5 -13 5 -14 0 -19 -2 -12 -5z"/>
<path d="M5648 3183 c6 -2 18 -2 25 0 6 3 1 5 -13 5 -14 0 -19 -2 -12 -5z"/>
<path d="M5228 3133 c7 -3 16 -2 19 1 4 3 -2 6 -13 5 -11 0 -14 -3 -6 -6z"/>
<path d="M5298 3133 c6 -2 18 -2 25 0 6 3 1 5 -13 5 -14 0 -19 -2 -12 -5z"/>
<path d="M5378 3133 c7 -3 16 -2 19 1 4 3 -2 6 -13 5 -11 0 -14 -3 -6 -6z"/>
<path d="M5453 3133 c15 -2 39 -2 55 0 15 2 2 4 -28 4 -30 0 -43 -2 -27 -4z"/>
<path d="M5568 3133 c6 -2 18 -2 25 0 6 3 1 5 -13 5 -14 0 -19 -2 -12 -5z"/>
<path d="M5648 3133 c6 -2 18 -2 25 0 6 3 1 5 -13 5 -14 0 -19 -2 -12 -5z"/>
<path d="M5228 3083 c7 -3 16 -2 19 1 4 3 -2 6 -13 5 -11 0 -14 -3 -6 -6z"/>
<path d="M5298 3083 c6 -2 18 -2 25 0 6 3 1 5 -13 5 -14 0 -19 -2 -12 -5z"/>
<path d="M5378 3083 c7 -3 16 -2 19 1 4 3 -2 6 -13 5 -11 0 -14 -3 -6 -6z"/>
<path d="M5453 3083 c15 -2 39 -2 55 0 15 2 2 4 -28 4 -30 0 -43 -2 -27 -4z"/>
<path d="M5568 3083 c6 -2 18 -2 25 0 6 3 1 5 -13 5 -14 0 -19 -2 -12 -5z"/>
<path d="M5648 3083 c6 -2 18 -2 25 0 6 3 1 5 -13 5 -14 0 -19 -2 -12 -5z"/>
<path d="M2110 3051 c0 -16 -3 -37 -7 -47 -6 -16 -3 -15 21 4 21 16 42 22 77
22 46 0 49 2 49 25 0 24 -2 25 -70 25 l-70 0 0 -29z"/>
<path d="M2350 3003 c1 -74 1 -76 14 -47 23 52 61 74 126 74 66 0 102 -21 125
-74 13 -30 13 -28 14 47 l1 77 -140 0 -140 0 0 -77z"/>
<path d="M2730 3055 l0 -25 116 0 c114 0 115 0 112 23 -3 21 -7 22 -115 25
l-113 3 0 -26z"/>
<path d="M3060 3055 l0 -25 100 0 100 0 0 25 0 25 -100 0 -100 0 0 -25z"/>
<path d="M4930 3050 l-65 -18 67 -1 c58 -1 69 2 78 19 13 25 8 25 -80 0z"/>
<path d="M5228 3033 c7 -3 16 -2 19 1 4 3 -2 6 -13 5 -11 0 -14 -3 -6 -6z"/>
<path d="M5298 3033 c6 -2 18 -2 25 0 6 3 1 5 -13 5 -14 0 -19 -2 -12 -5z"/>
<path d="M5378 3033 c7 -3 16 -2 19 1 4 3 -2 6 -13 5 -11 0 -14 -3 -6 -6z"/>
<path d="M5453 3033 c15 -2 39 -2 55 0 15 2 2 4 -28 4 -30 0 -43 -2 -27 -4z"/>
<path d="M5568 3033 c6 -2 18 -2 25 0 6 3 1 5 -13 5 -14 0 -19 -2 -12 -5z"/>
<path d="M5648 3033 c6 -2 18 -2 25 0 6 3 1 5 -13 5 -14 0 -19 -2 -12 -5z"/>
<path d="M2138 2958 l-23 -23 28 -3 c33 -4 34 -8 5 -33 -23 -18 -23 -18 40
-19 l62 0 0 50 0 50 -45 0 c-33 0 -51 -6 -67 -22z"/>
<path d="M2428 2969 c-24 -14 -23 -39 2 -39 11 0 20 -4 20 -9 0 -15 -48 -41
-75 -41 l-25 0 0 -175 c0 -96 4 -175 9 -175 5 0 11 -9 14 -20 3 -11 12 -20 21
-20 14 0 16 23 16 195 l0 195 80 0 80 0 0 -195 c0 -172 2 -195 16 -195 9 0 18
9 21 20 3 11 9 20 14 20 5 0 9 79 9 175 l0 175 -25 0 c-27 0 -75 26 -75 41 0
5 9 9 20 9 25 0 26 12 2 33 -21 19 -96 23 -124 6z"/>
<path d="M2710 2720 l0 -180 505 0 505 0 0 -40 0 -40 -505 0 -505 0 0 -142 c0
-135 -2 -148 -40 -286 l-41 -144 28 -43 c15 -24 36 -46 48 -49 11 -3 71 -6
133 -6 l112 0 0 270 0 270 145 0 145 0 0 -270 0 -270 185 0 185 0 21 41 c14
29 19 51 15 73 -8 37 -9 67 -3 73 3 2 34 9 71 15 l66 11 0 233 0 234 395 0
395 0 0 -215 0 -215 68 0 c37 0 77 -3 90 -6 l22 -6 0 216 0 216 395 0 395 0 0
-330 c0 -181 1 -331 3 -331 5 -3 537 -14 537 -11 0 1 -7 19 -15 39 -16 37 -13
69 4 58 5 -3 12 4 16 15 5 17 15 20 66 20 l59 0 0 -60 c0 -33 4 -60 10 -60 5
0 23 20 39 44 l30 43 -40 144 c-23 79 -45 147 -50 150 -7 4 -8 56 -3 142 l7
137 -297 0 -296 0 0 40 0 40 290 0 290 0 0 180 0 180 -1740 0 -1740 0 0 -180z"/>
<path d="M2086 2853 c-16 -81 -46 -333 -40 -347 4 -11 18 -16 45 -16 l39 0 -2
192 c-3 170 -5 193 -20 196 -11 2 -18 -6 -22 -25z"/>
<path d="M7395 2749 c-4 -5 -4 -21 -1 -34 3 -13 1 -27 -5 -31 -7 -4 -9 -21 -5
-44 3 -21 1 -52 -5 -69 -10 -29 -14 -31 -47 -26 -21 3 -62 2 -92 -2 -62 -9
-73 -22 -85 -107 -6 -47 -6 -49 11 -35 9 7 25 32 35 54 l19 40 0 -137 c0 -76
4 -138 9 -138 5 0 6 28 4 63 -4 53 -2 66 17 90 27 35 43 25 36 -22 -4 -20 -2
-43 4 -51 8 -12 10 -10 10 10 0 34 25 103 38 108 6 2 21 -2 33 -8 12 -7 46
-12 75 -11 l54 0 2 -92 c1 -84 2 -87 7 -33 6 58 25 85 34 49 3 -10 5 7 6 38 1
36 6 61 15 68 8 7 18 41 21 76 4 35 13 72 19 81 12 15 15 15 40 -1 14 -10 29
-15 33 -11 6 5 -23 82 -38 99 -8 11 -87 -38 -112 -70 -21 -26 -58 -30 -77 -8
-16 19 -4 35 28 36 25 1 24 2 -6 9 -47 11 -54 21 -40 56 6 17 8 38 5 48 -7 18
-32 22 -42 5z"/>
<path d="M3800 2220 l0 -220 38 5 c131 19 245 27 460 32 l242 6 0 198 0 199
-370 0 -370 0 0 -220z"/>
<path d="M4770 2230 c0 -152 3 -201 13 -204 142 -38 303 -110 436 -196 l62
-40 114 0 115 0 0 320 0 320 -370 0 -370 0 0 -200z"/>
<path d="M2277 2354 c-8 -16 -20 -48 -26 -71 -11 -40 -13 -42 -37 -33 -54 21
-144 5 -144 -25 0 -8 9 -15 20 -15 11 0 20 -4 20 -8 0 -4 -9 -14 -20 -22 -18
-13 -20 -26 -20 -157 l0 -143 85 0 85 0 1 93 1 92 14 -42 c14 -39 19 -43 67
-53 29 -6 102 -23 164 -39 l112 -29 -66 98 -67 98 -115 56 c-106 51 -116 54
-119 36 -3 -17 -5 -18 -18 -6 -19 19 -18 23 8 30 15 3 56 -11 125 -44 l103
-49 -82 119 c-45 66 -79 122 -76 125 3 3 43 -51 90 -120 l85 -124 -5 122 c-2
67 -6 124 -8 126 -2 2 -40 6 -83 9 -79 4 -79 4 -94 -24z"/>
<path d="M6484 2373 c-20 -4 -22 -13 -28 -119 -4 -64 -6 -118 -4 -120 2 -2 43
53 91 121 l86 125 -62 -1 c-34 -1 -72 -4 -83 -6z"/>
<path d="M2474 2237 l6 -132 67 -98 c36 -54 69 -95 73 -90 9 10 80 266 80 287
0 8 -24 39 -52 69 -41 42 -67 58 -117 75 l-64 22 7 -133z"/>
<path d="M6391 2350 c-80 -29 -171 -109 -171 -151 0 -22 74 -289 81 -289 3 0
35 44 71 98 l65 97 6 133 c4 72 5 132 4 132 -1 -1 -26 -9 -56 -20z"/>
<path d="M6559 2254 c-41 -60 -78 -115 -83 -122 -4 -7 40 11 98 40 105 52 106
53 100 83 -3 16 -14 48 -23 69 l-17 40 -75 -110z"/>
<path d="M7541 2253 c-1 -12 4 -25 9 -28 12 -7 12 2 0 30 -8 19 -9 19 -9 -2z"/>
<path d="M7310 2241 c0 -6 4 -13 10 -16 6 -3 7 1 4 9 -7 18 -14 21 -14 7z"/>
<path d="M6563 2151 c-118 -59 -126 -67 -227 -223 l-17 -26 163 41 163 42 18
54 c11 34 17 76 15 111 l-3 58 -112 -57z"/>
<path d="M4204 1990 c-55 -4 -154 -13 -218 -20 -113 -12 -119 -14 -149 -45
-18 -18 -41 -48 -51 -67 -22 -38 -12 -29 28 25 15 20 37 44 49 52 21 13 343
52 353 43 2 -2 -6 -64 -18 -138 l-21 -133 -221 7 c-121 4 -222 9 -224 11 -2 2
6 25 18 52 11 26 17 44 11 38 -5 -5 -19 -31 -30 -57 l-20 -48 47 0 c26 0 324
-11 662 -25 338 -14 618 -25 622 -25 4 0 17 -18 28 -39 14 -28 28 -41 50 -46
45 -10 54 2 30 39 -11 19 -20 36 -20 39 0 4 45 3 100 0 55 -3 100 -3 100 0 0
12 -84 66 -93 60 -6 -3 -7 -1 -3 5 8 13 -28 35 -39 24 -5 -4 -5 -2 -2 5 8 13
-177 139 -268 183 -73 35 -138 47 -320 60 -153 11 -247 11 -401 0z m388 -10
c246 -16 316 -38 492 -155 79 -53 86 -60 86 -90 0 -46 -9 -65 -30 -65 -16 0
-17 4 -10 30 7 25 5 32 -13 45 -12 8 -41 15 -64 15 -48 0 -68 -22 -57 -66 l7
-25 -69 5 c-38 3 -145 8 -239 11 -93 3 -218 8 -276 11 l-106 6 -7 136 c-5 105
-4 137 6 144 17 10 99 10 280 -2z"/>
<path d="M7032 1963 c3 -27 6 -28 68 -33 59 -5 65 -7 68 -28 2 -15 9 -22 17
-18 23 8 28 -13 11 -39 -9 -13 -16 -32 -16 -42 0 -16 1 -16 18 0 13 14 17 34
17 88 0 90 -10 99 -113 99 l-73 0 3 -27z"/>
<path d="M2285 1959 c23 -41 62 -84 107 -119 l50 -40 114 0 115 0 -30 44 -31
44 -157 37 c-87 21 -162 40 -167 43 -5 3 -6 -1 -1 -9z"/>
<path d="M6447 1922 c-134 -36 -140 -38 -169 -77 l-29 -40 105 -3 c123 -3 140
3 214 78 l49 49 119 4 119 3 -118 2 c-76 1 -116 6 -112 12 10 17 -34 10 -178
-28z"/>
<path d="M8033 1933 c37 -2 96 -2 130 0 34 2 4 3 -68 3 -71 0 -99 -1 -62 -3z"/>
<path d="M6663 1823 c37 -2 96 -2 130 0 34 2 4 3 -68 3 -71 0 -99 -1 -62 -3z"/>
<path d="M6878 1823 c12 -2 30 -2 40 0 9 3 -1 5 -23 4 -22 0 -30 -2 -17 -4z"/>
<path d="M7908 1823 c12 -2 30 -2 40 0 9 3 -1 5 -23 4 -22 0 -30 -2 -17 -4z"/>
<path d="M8033 1823 c37 -2 96 -2 130 0 34 2 4 3 -68 3 -71 0 -99 -1 -62 -3z"/>
<path d="M6025 1720 c-3 -5 -24 -14 -45 -20 -22 -6 -46 -21 -54 -33 -17 -26
-32 -135 -46 -317 -14 -189 -15 -177 19 -172 28 4 30 7 36 66 4 33 14 95 22
136 8 41 17 83 19 94 14 74 19 -69 8 -221 -6 -70 -10 -82 -27 -87 -17 -4 -19
-11 -14 -48 3 -23 12 -47 20 -53 12 -8 14 -75 13 -400 -1 -214 -5 -400 -10
-412 -8 -23 -7 -23 68 -23 82 0 89 8 31 36 -19 9 -35 24 -35 33 0 29 82 726
86 730 14 15 20 -40 30 -282 15 -331 17 -453 8 -490 l-6 -27 92 0 c76 0 90 2
81 13 -6 8 -29 19 -51 26 -23 7 -43 18 -46 26 -3 7 4 157 15 332 27 415 30
478 32 663 1 153 1 154 14 95 7 -33 16 -95 20 -137 l7 -78 30 0 30 0 -7 98
c-11 179 -36 367 -51 390 -12 18 -112 74 -121 68 -1 -1 -7 -42 -13 -91 -6 -50
-13 -99 -14 -110 -2 -11 -5 -31 -6 -45 -2 -18 -4 -14 -10 17 -5 22 -18 62 -29
86 -12 25 -21 49 -21 53 0 4 -10 26 -22 50 -21 42 -40 55 -53 34z"/>
<path d="M6661 1544 c0 -11 3 -14 6 -6 3 7 2 16 -1 19 -3 4 -6 -2 -5 -13z"/>
<path d="M6660 1511 c13 -9 13 -11 -2 -11 -11 0 -18 -8 -18 -20 0 -14 7 -20
21 -20 16 0 20 5 17 27 -2 14 -10 28 -18 30 -13 4 -13 3 0 -6z"/>
<path d="M3715 1325 c-5 -2 -26 -6 -46 -9 -45 -8 -113 -65 -140 -118 -22 -43
-27 -135 -10 -179 15 -41 69 -98 114 -121 57 -28 159 -23 211 12 45 31 91 98
100 146 10 51 -11 136 -44 182 -36 51 -141 100 -185 87z m85 -75 c57 -29 84
-73 88 -145 2 -48 -2 -68 -20 -100 -26 -45 -93 -85 -143 -85 -44 0 -116 40
-141 77 -98 148 60 333 216 253z"/>
<path d="M3670 1248 c-35 -13 -35 -13 -10 -52 33 -54 53 -48 44 12 -3 26 -7
48 -8 48 0 1 -12 -3 -26 -8z"/>
<path d="M3749 1220 c-1 -16 -2 -35 -3 -42 -2 -25 23 -17 45 13 22 31 22 32 4
45 -30 22 -45 17 -46 -16z"/>
<path d="M3581 1171 c-20 -36 -13 -48 31 -55 59 -10 66 6 19 43 -38 31 -40 31
-50 12z"/>
<path d="M3818 1157 c-39 -31 -37 -51 3 -43 17 3 37 6 45 6 10 0 11 7 3 30
-13 36 -16 36 -51 7z"/>
<path d="M3615 1073 c-41 -6 -48 -16 -34 -46 l12 -26 38 27 c38 26 52 54 27
51 -7 -1 -26 -4 -43 -6z"/>
<path d="M3785 1070 c-4 -6 -5 -12 -4 -14 58 -42 72 -48 80 -35 15 23 10 49
-8 49 -10 0 -28 3 -39 6 -12 3 -25 1 -29 -6z"/>
<path d="M3672 1013 c-34 -50 -34 -53 -6 -63 15 -6 28 -9 29 -8 2 2 6 24 10
51 8 54 -4 62 -33 20z"/>
<path d="M3747 1034 c-6 -6 1 -83 8 -92 4 -5 55 21 55 27 -1 14 -56 72 -63 65z"/>
<path d="M5455 1301 c-125 -57 -172 -223 -94 -331 94 -130 269 -129 363 2 53
74 46 197 -15 271 -59 72 -169 97 -254 58z m190 -65 c135 -103 48 -331 -119
-312 -165 19 -210 240 -66 326 51 30 135 24 185 -14z"/>
<path d="M5477 1238 c-15 -12 -15 -15 4 -45 33 -51 52 -42 42 20 -6 39 -18 45
-46 25z"/>
<path d="M5570 1228 c0 -13 -3 -33 -6 -45 -9 -35 20 -29 47 8 22 31 22 32 4
45 -28 20 -45 17 -45 -8z"/>
<path d="M5399 1154 c-11 -32 -13 -30 33 -38 49 -9 60 10 22 41 -37 29 -42 29
-55 -3z"/>
<path d="M5630 1151 c-19 -16 -32 -32 -28 -36 3 -4 26 -3 51 0 45 7 45 7 35
36 -5 16 -13 29 -16 29 -4 0 -23 -14 -42 -29z"/>
<path d="M5430 1071 c-28 -5 -34 -10 -32 -26 2 -11 8 -24 12 -29 12 -13 79 34
73 51 -3 7 -8 12 -12 12 -3 -1 -22 -4 -41 -8z"/>
<path d="M5600 1069 c0 -8 17 -25 36 -37 29 -19 38 -21 45 -10 13 20 11 48 -5
48 -7 0 -28 3 -45 6 -23 5 -31 3 -31 -7z"/>
<path d="M5486 1004 c-27 -40 -25 -47 10 -58 19 -6 22 -1 28 35 10 59 -7 69
-38 23z"/>
<path d="M5566 993 c3 -27 8 -49 9 -51 3 -3 44 15 54 24 5 5 -51 74 -61 74 -5
0 -6 -20 -2 -47z"/>
<path d="M6981 1033 c0 -65 10 -257 23 -428 l22 -310 -58 -28 c-32 -15 -58
-29 -58 -32 0 -3 40 -5 88 -5 l89 0 2 138 c5 271 26 655 36 659 7 2 25 -119
49 -329 21 -183 40 -351 43 -374 5 -39 4 -41 -30 -58 -60 -28 -54 -36 29 -36
l77 0 -7 37 c-3 21 -6 228 -6 461 l0 422 -150 0 -150 0 1 -117z"/>
</g>
</svg>
